<svg id="Component_-_Next_-_Small" data-name="Component - Next - Small" xmlns="http://www.w3.org/2000/svg" width="50" height="50" viewBox="0 0 50 50">
  <g id="パス_37" data-name="パス 37" fill="#fafafa">
    <path d="M 40 49.5 L 10 49.5 C 4.761680126190186 49.5 0.5 45.23831939697266 0.5 40 L 0.5 10 C 0.5 4.761680126190186 4.761680126190186 0.5 10 0.5 L 40 0.5 C 45.23831939697266 0.5 49.5 4.761680126190186 49.5 10 L 49.5 40 C 49.5 45.23831939697266 45.23831939697266 49.5 40 49.5 Z" stroke="none"/>
    <path d="M 10 1 C 5.037380218505859 1 1 5.037380218505859 1 10 L 1 40 C 1 44.96261978149414 5.037380218505859 49 10 49 L 40 49 C 44.96261978149414 49 49 44.96261978149414 49 40 L 49 10 C 49 5.037380218505859 44.96261978149414 1 40 1 L 10 1 M 10 0 L 40 0 C 45.52285003662109 0 50 4.477149963378906 50 10 L 50 40 C 50 45.52285003662109 45.52285003662109 50 40 50 L 10 50 C 4.477149963378906 50 0 45.52285003662109 0 40 L 0 10 C 0 4.477149963378906 4.477149963378906 0 10 0 Z" stroke="none" fill="#707070"/>
  </g>
  <g id="Icon_-_ArrowRight_-_Small" data-name="Icon - ArrowRight - Small" transform="translate(22 20)">
    <path id="パス_36" data-name="パス 36" d="M6.7,8.1,2,3.4,3.4,2,6.7,5.3,10,2l1.4,1.4Z" transform="translate(-2 11.4) rotate(-90)" fill="#272343"/>
  </g>
</svg>
